<svg width="542.702" height="129.203" viewBox="0 0 143.59 34.185" xmlns="http://www.w3.org/2000/svg"><path d="M17.093-.001L14.42 4.626l2.672 1.542.913.527 1.622.937 1.582.913 1.225.708-.408-.708-.528-.913-1.278-2.215-.457-.791zm-9.46 16.383l-.409.708-.527.914-1.279 2.214-.456.791-2.672 4.627h5.343v-7.838zm21.591 4.628l-2.672 1.543-.913.527-1.621.936-1.583.914-1.225.708h10.685z" fill="#f0c514"/><path d="M8.546 2.29v5.342H17.8l-1.62-.936-2.216-1.279-.79-.456zm21.012 12.129l-1.542 2.67-.528.914-.936 1.622-.913 1.582-.708 1.225.708-.408.913-.528 7.633-4.406zM8.546 21.207v10.686l4.627-2.672-1.542-2.67-.527-.914-.936-1.622-.914-1.582-.708-1.226z" fill="#e84c3d"/><path d="M2.29 8.546l2.671 4.627 2.672-1.543.913-.527 1.621-.936 1.582-.914 1.226-.707H7.633zm24.262 0v9.253l.409-.707.527-.914 1.736-3.005 2.67-4.627zM11.75 24.93l.408.707.528.913 4.407 7.633 2.671-4.627-2.671-1.542-.914-.528-1.621-.936-1.582-.913-1.226-.708z" fill="#34495e"/><path d="M25.639 2.29l-4.627 2.67 1.542 2.672.528.914.936 1.62.913 1.583.708 1.226V7.632zM9.254 11.747l-.708.409-3.128 1.806-.79.457L0 17.089l4.627 2.672L6.17 17.09l.528-.914.936-1.62.913-1.583.708-1.226zm7.131 14.803l.708.409.913.527 2.215 1.279.791.457 4.627 2.67V26.55H17.8z" fill="#1ab99b"/><path d="M74.643 5.36c-2.057 0-3.64.555-4.75 1.665-1.1 1.1-1.65 2.632-1.65 4.598v2.444h-2.2v2.658h2.2V28.52h3.436V16.725h2.964v-2.658H71.68v-1.695c0-.5.051-.993.153-1.482.102-.49.275-.922.52-1.299a2.91 2.91 0 0 1 .947-.917c.387-.244.85-.366 1.39-.366.58 0 1.064.112 1.451.336a2.4 2.4 0 0 1 .902.84c.224.346.376.723.458 1.13.081.398.122.795.122 1.192V25.45c0 .896.336 1.67 1.009 2.321.682.642 1.619.963 2.81.963.438 0 .866-.03 1.284-.092a11.5 11.5 0 0 0 1.115-.214c.336-.081.61-.157.825-.229.224-.081.346-.132.367-.153l-.52-2.78c-.02 0-.234.072-.642.214a3.89 3.89 0 0 1-1.207.199c-.275 0-.514-.056-.717-.168a1.749 1.749 0 0 1-.49-.459 2.45 2.45 0 0 1-.305-.61 2.441 2.441 0 0 1-.092-.642V11.027c0-.835-.132-1.599-.397-2.291-.254-.703-.647-1.304-1.176-1.803s-1.202-.886-2.017-1.161c-.804-.275-1.746-.413-2.826-.413zm45.664.32v3.79h3.437V5.68h-3.437zm-67.081.627l-8.953 22.212h3.759l2.321-6.034h8.57l2.37 6.034h3.727L56.098 6.307h-2.872zm1.436 3.91l3.575 9.671H50.98l3.682-9.67zm38.697 1.65c-2.271.01-4.46.724-6.569 2.14l1.054 2.184c.907-.601 1.777-1.065 2.612-1.39a7.125 7.125 0 0 1 2.583-.49c1.293 0 2.286.342 2.978 1.024.693.672 1.04 1.614 1.04 2.827v1.13a11.077 11.077 0 0 0-2.048-.55 12.959 12.959 0 0 0-2.276-.199c-1.019 0-1.95.128-2.796.382-.845.245-1.578.596-2.2 1.054a4.926 4.926 0 0 0-1.42 1.635c-.336.621-.504 1.319-.504 2.093 0 .723.142 1.4.427 2.032a5.13 5.13 0 0 0 1.162 1.62 5.42 5.42 0 0 0 1.741 1.084 6.288 6.288 0 0 0 2.215.382 7.927 7.927 0 0 0 3.453-.764 7.343 7.343 0 0 0 2.704-2.2l.092 1.039c.091.52.305.937.641 1.253.347.305.856.478 1.528.519.224 0 .473-.01.748-.03.285-.02.596-.061.932-.123v-2.948c-.346-.02-.596-.112-.748-.275-.143-.163-.214-.443-.214-.84v-5.913c0-2.149-.626-3.798-1.88-4.95-1.252-1.15-3.004-1.726-5.255-1.726zm17.187 0a8.73 8.73 0 0 0-2.52.352c-.785.234-1.462.575-2.033 1.023a5.016 5.016 0 0 0-1.36 1.635c-.335.642-.504 1.38-.504 2.215 0 .632.103 1.171.306 1.62.214.447.55.834 1.008 1.16.459.316 1.055.606 1.788.871.733.255 1.609.51 2.627.764 1.477.356 2.557.698 3.24 1.024.682.315 1.023.82 1.023 1.512 0 .733-.306 1.298-.917 1.696-.611.397-1.436.595-2.475.595-1.975-.01-3.967-.712-5.973-2.107l-1.436 2.321c.458.357.982.678 1.573.963.601.275 1.228.514 1.88.718.662.193 1.329.34 2 .443.673.102 1.345.153 2.017.153.998 0 1.91-.117 2.735-.352.835-.244 1.538-.585 2.108-1.023s1.013-.968 1.329-1.589c.316-.621.474-1.319.474-2.093 0-.692-.127-1.283-.382-1.772-.244-.49-.637-.917-1.177-1.283-.53-.367-1.201-.683-2.016-.948a33.877 33.877 0 0 0-2.903-.824 41.455 41.455 0 0 1-1.695-.443 5.694 5.694 0 0 1-1.116-.459 1.684 1.684 0 0 1-.61-.58c-.123-.235-.184-.52-.184-.856 0-.794.3-1.375.901-1.742.611-.366 1.355-.55 2.23-.55 1.773 0 3.443.586 5.011 1.758l1.467-2.093a10.72 10.72 0 0 0-2.979-1.543 10.532 10.532 0 0 0-3.437-.566zm24.626 0c-1.263 0-2.414.235-3.453.703a8.358 8.358 0 0 0-2.658 1.849 7.876 7.876 0 0 0-1.71 2.688 9.122 9.122 0 0 0-.581 3.24c0 1.13.193 2.214.58 3.253a8.163 8.163 0 0 0 1.696 2.704c.734.764 1.614 1.375 2.643 1.833s2.19.688 3.483.688c1.273 0 2.424-.23 3.453-.688a8.437 8.437 0 0 0 2.673-1.833 7.847 7.847 0 0 0 1.696-2.704 9.034 9.034 0 0 0 .596-3.254c0-1.12-.199-2.195-.596-3.223a7.664 7.664 0 0 0-1.696-2.705 8.31 8.31 0 0 0-2.673-1.848c-1.029-.469-2.18-.703-3.453-.703zm-14.864.29V28.52h3.437V12.158h-3.437zm14.864 2.659c.693 0 1.334.143 1.925.428.6.275 1.12.667 1.558 1.176.438.499.78 1.085 1.024 1.757.255.672.382 1.395.382 2.17 0 .794-.127 1.527-.382 2.2a5.689 5.689 0 0 1-1.024 1.756 4.762 4.762 0 0 1-1.558 1.176 4.504 4.504 0 0 1-1.925.413 4.57 4.57 0 0 1-1.925-.413 4.928 4.928 0 0 1-1.542-1.16 5.734 5.734 0 0 1-1.04-1.742 6.265 6.265 0 0 1-.366-2.185c0-.774.127-1.497.382-2.17a5.885 5.885 0 0 1 1.054-1.772 4.73 4.73 0 0 1 1.543-1.191 4.176 4.176 0 0 1 1.894-.443zm-41.904 5.698c.621 0 1.263.061 1.925.184.662.122 1.283.3 1.864.534v2.154c0 .418-.22.815-.658 1.192-.417.54-.998.962-1.741 1.268a6.168 6.168 0 0 1-2.368.458c-.937 0-1.711-.275-2.322-.825a2.71 2.71 0 0 1-.901-2.062c0-.876.392-1.579 1.176-2.109.784-.53 1.792-.794 3.025-.794z" fill="#333" style="font-feature-settings:normal;font-variant-caps:normal;font-variant-ligatures:normal;font-variant-numeric:normal"/></svg>